<?xml version="1.0" encoding="utf-8"?><svg xmlns="http://www.w3.org/2000/svg" xmlns:xlink="http://www.w3.org/1999/xlink"><style>:root>svg{display:none}:root>svg:target{display:block}</style><svg viewBox="0 0 192 192" id="casino-chip" xmlns="http://www.w3.org/2000/svg"><linearGradient id="aa" gradientUnits="userSpaceOnUse" x1="56.42" x2="135.58" y1="135.58" y2="56.42"><stop offset="0" stop-color="#ff85a6"/><stop offset="1" stop-color="#ffdc68"/></linearGradient><g data-name="06-king"><circle cx="96" cy="96" fill="#ffdc68" r="96"/><path d="M112 176A95.951 95.951 0 0 1 36.62 20.62a95.965 95.965 0 1 0 134.76 134.76A95.531 95.531 0 0 1 112 176z" fill="#ffd342"/><circle cx="96" cy="96" fill="#fff2c6" r="72"/><circle cx="96" cy="96" fill="url(#aa)" r="56"/><g fill="#fff"><path d="M64 128h64l4-37-20 13-16-24-16 24-21-13z"/><circle cx="96" cy="72" r="8"/><circle cx="136" cy="80" r="8"/><circle cx="56" cy="80" r="8"/></g></g></svg><svg viewBox="0 0 192 192" id="cherry" xmlns="http://www.w3.org/2000/svg"><linearGradient id="ba" gradientUnits="userSpaceOnUse" x1="123.729" x2="180.271" y1="148.271" y2="91.729"><stop offset="0" stop-color="#ff85a6"/><stop offset="1" stop-color="#ffdc68"/></linearGradient><linearGradient id="bb" x1="11.729" x2="68.271" xlink:href="#ba" y1="172.271" y2="115.729"/><g data-name="04-cherry"><path d="M60.116 126.86l-8.232-13.72C88.97 90.889 96 61.833 96 16a8 8 0 0 1 10.53-7.589A82.6 82.6 0 0 1 133.406 25.1C145.538 36.224 160 56.164 160 88h-16c0-34.169-19.6-51.632-32.219-59.332-1.573 42.757-12.258 74.547-51.665 98.192z" fill="#ffe58e"/><path d="M77.494 16.437L125.51.45l5.056 15.184L82.55 31.62z" fill="#ffd342"/><circle cx="152" cy="120" fill="url(#ba)" r="40"/><circle cx="40" cy="144" fill="url(#bb)" r="40"/><g fill="#fff"><circle cx="56" cy="136" r="8"/><circle cx="168" cy="112" r="8"/></g></g></svg><svg viewBox="0 0 192 192" id="chip" xmlns="http://www.w3.org/2000/svg"><linearGradient id="ca" gradientUnits="userSpaceOnUse" x1="68" x2="124" y1="124" y2="68"><stop offset="0" stop-color="#ff85a6"/><stop offset="1" stop-color="#ffdc68"/></linearGradient><g data-name="01-chip"><circle cx="96" cy="96" fill="#ffe58e" r="96"/><g fill="#fff2c6"><path d="M104 40V.336C101.361.117 98.694 0 96 0s-5.361.117-8 .336V40zM74.928 43.5L55.1 9.161a96.1 96.1 0 0 0-13.843 8.023L61.072 51.5zM51.5 61.072L17.184 41.258A96.1 96.1 0 0 0 9.161 55.1L43.5 74.928zM40 88H.336C.117 90.639 0 93.306 0 96s.117 5.361.336 8H40zM43.5 117.072L9.161 136.9a96.1 96.1 0 0 0 8.023 13.843L51.5 130.928zM61.072 140.5l-19.814 34.316a96.1 96.1 0 0 0 13.842 8.023L74.928 148.5zM88 152v39.664c2.639.219 5.306.336 8 .336s5.361-.117 8-.336V152zM117.072 148.5l19.828 34.339a96.1 96.1 0 0 0 13.843-8.023L130.928 140.5zM140.5 130.928l34.318 19.814a96.1 96.1 0 0 0 8.023-13.843L148.5 117.072zM152 104h39.664c.219-2.639.336-5.306.336-8s-.117-5.361-.336-8H152zM148.5 74.928L182.839 55.1a96.1 96.1 0 0 0-8.023-13.843L140.5 61.072zM130.928 51.5l19.814-34.318A96.1 96.1 0 0 0 136.9 9.161L117.072 43.5z"/></g><circle cx="96" cy="96" fill="#ffd342" r="72"/><circle cx="96" cy="96" fill="#fff6d9" r="56"/><path d="M112 144A55.972 55.972 0 0 1 79.4 42.513a55.994 55.994 0 1 0 49.2 98.974A55.83 55.83 0 0 1 112 144z" fill="#ffedb4"/><path d="M92 80h28V64h-16v-8H88v8.4a20 20 0 0 0 4 39.6h8a4 4 0 0 1 0 8H72v16h16v8h16v-8.4a20 20 0 0 0-4-39.6h-8a4 4 0 0 1 0-8z" fill="url(#ca)"/></g></svg><svg viewBox="0 0 192 192" id="clover" xmlns="http://www.w3.org/2000/svg"><linearGradient id="da" gradientUnits="userSpaceOnUse" x1="31.855" x2="160.145" y1="160.145" y2="31.855"><stop offset="0" stop-color="#ff85a6"/><stop offset="1" stop-color="#ffdc68"/></linearGradient><path d="M185.726 57.793c-6.907-9.044-18.107-12.642-28.534-9.167-11.8 3.932-18.615 11.051-25.209 17.936-6.509 6.8-12.751 13.307-24.422 17.877 4.57-11.672 11.08-17.913 17.877-24.422 6.884-6.6 14-13.413 17.937-25.209 3.475-10.426-.123-21.626-9.167-28.534C125.872-.094 111.776-3.369 96 5.089 80.224-3.368 66.128-.093 57.793 6.274c-9.044 6.908-12.643 18.108-9.167 28.534 3.932 11.8 11.051 18.614 17.936 25.209 6.8 6.509 13.307 12.75 17.877 24.422-11.672-4.57-17.913-11.08-24.422-17.877-6.6-6.885-13.413-14-25.209-17.936-10.427-3.476-21.626.122-28.534 9.167C-.093 66.128-3.369 80.222 5.089 96c-8.458 15.778-5.182 29.872 1.185 38.207a25.86 25.86 0 0 0 20.553 10.473 25.184 25.184 0 0 0 7.981-1.306c11.8-3.932 18.614-11.051 25.209-17.936 6.509-6.8 12.75-13.307 24.422-17.877-4.57 11.672-11.08 17.913-17.877 24.422-6.885 6.595-14 13.413-17.936 25.209-3.476 10.426.123 21.626 9.167 28.534 8.335 6.367 22.431 9.642 38.207 1.185A40.093 40.093 0 0 0 115.007 192a31.639 31.639 0 0 0 19.2-6.274c9.044-6.908 12.642-18.108 9.167-28.534-3.933-11.8-11.053-18.614-17.937-25.209-6.8-6.509-13.307-12.75-17.877-24.422 11.671 4.57 17.913 11.08 24.422 17.877 6.594 6.885 13.413 14 25.21 17.936a25.169 25.169 0 0 0 7.98 1.306 25.86 25.86 0 0 0 20.553-10.473c6.367-8.335 9.642-22.429 1.185-38.207 8.458-15.778 5.183-29.872-1.184-38.207z" fill="url(#da)" data-name="03-luck"/></svg><svg viewBox="0 0 192 192" id="dice" xmlns="http://www.w3.org/2000/svg"><linearGradient id="ea" gradientUnits="userSpaceOnUse" x1="83.231" x2="156.769" y1="161.769" y2="88.231"><stop offset="0" stop-color="#ff85a6"/><stop offset="1" stop-color="#ffdc68"/></linearGradient><g data-name="11-dice"><rect fill="#fff2c6" height="104" rx="16" width="104" x="8"/><path d="M24 72V0A16.019 16.019 0 0 0 8 16v72a16.019 16.019 0 0 0 16 16h72a16.019 16.019 0 0 0 16-16H40a16.019 16.019 0 0 1-16-16z" fill="#ffedb4"/><g fill="#ffdc68"><circle cx="40" cy="32" r="8"/><circle cx="80" cy="32" r="8"/><circle cx="40" cy="72" r="8"/><circle cx="80" cy="72" r="8"/></g><path d="M182.225 113.687l-50.911-50.912a16.148 16.148 0 0 0-22.627 0l-50.912 50.911a16.148 16.148 0 0 0 0 22.627l50.911 50.912a16.15 16.15 0 0 0 22.627 0l50.912-50.911a16.148 16.148 0 0 0 0-22.627z" fill="url(#ea)"/><circle cx="120" cy="125" fill="#fff" r="8"/></g></svg><svg version="1.1" id="dollar" x="0" y="0" viewBox="0 0 292.8 512" xml:space="preserve" xmlns="http://www.w3.org/2000/svg"><style>.fst0{fill:url(#fSVGID_1_)}</style><linearGradient id="fSVGID_1_" gradientUnits="userSpaceOnUse" x1="0" y1="255.88" x2="292.803" y2="255.88" gradientTransform="matrix(1 0 0 -1 0 511.897)"><stop offset="0" stop-color="#9146f1"/><stop offset=".233" stop-color="#9d4ee7"/><stop offset=".653" stop-color="#bd63cd"/><stop offset="1" stop-color="#dc78b3"/></linearGradient><path class="fst0" d="M169 224V110.2c24.3 4.1 47.3 14.1 66.9 29.1 3.9 2.7 8.5 4.1 13.3 4.2 15.2 0 27.6-12.2 27.8-27.5 0-6.5-2.5-12.8-7.1-17.5C241.5 74.3 206 60 168.7 57.9V19.7C168.7 8.8 159.9 0 149 0h-.7c-11.1-.2-20.2 8.7-20.3 19.7v36.8C55.3 61.7 5.8 106.6 5.8 166.4c0 73.4 62.4 93.7 122.2 109.9v129.3c-31.5-4.2-61.3-17.3-85.6-37.8-4.6-3.7-10.3-5.7-16.2-5.8C11.3 363-.2 375.5 0 390.4c0 6.5 2.5 12.8 7.1 17.5 33.4 30.1 76.3 47.3 121.2 48.8V493c.5 11.1 9.9 19.6 21 19 10.9 0 19.7-8.8 19.7-19.7v-36.2c88.2-5.8 123.8-59.5 123.8-116.3 0-76.4-64-99.6-123.8-115.8zm-40.7-10.3c-35.2-10.3-62.7-21-62.7-51.1s24.9-51.7 62.7-54.6v105.7zM169 406.3V288.6c36.5 10.3 65 24.2 64.6 58.2.1 24.6-16.7 53.7-64.6 59.5z"/></svg><svg viewBox="0 0 192 192" id="horseshoe" xmlns="http://www.w3.org/2000/svg"><linearGradient id="ga" gradientUnits="userSpaceOnUse" x1="19.04" x2="172.96" y1="153.222" y2="-.697"><stop offset="0" stop-color="#ff85a6"/><stop offset="1" stop-color="#ffdc68"/></linearGradient><path d="M160.544 32H172a4 4 0 0 0 4-4V4a4 4 0 0 0-4-4h-44a16.005 16.005 0 0 0-11.4 27.225C117.771 28.546 152 67.721 152 108c0 31.26-33.706 52-56 52s-56-20.74-56-52c0-40.2 34.149-79.364 35.386-80.759A16 16 0 0 0 64 0H20a4 4 0 0 0-4 4v24a4 4 0 0 0 4 4h11.456C19.858 50.87 8 79.826 8 108c0 24.623 11.539 48.985 30.115 63.582C54.387 184.367 76.027 192 96 192s41.613-7.633 57.885-20.419C172.461 156.985 184 132.623 184 108c0-28.174-11.858-57.13-23.456-76zM40 40a8 8 0 1 1-8 8 8 8 0 0 1 8-8zM16 96a8 8 0 1 1 8 8 8 8 0 0 1-8-8zm16 56a8 8 0 1 1 8-8 8 8 0 0 1-8 8zm32 24a8 8 0 1 1 8-8 8 8 0 0 1-8 8zm64 0a8 8 0 1 1 8-8 8 8 0 0 1-8 8zm16-128a8 8 0 1 1 8 8 8 8 0 0 1-8-8zm16 104a8 8 0 1 1 8-8 8 8 0 0 1-8 8zm8-48a8 8 0 1 1 8-8 8 8 0 0 1-8 8z" fill="url(#ga)" data-name="02-horseshoe"/></svg><svg version="1.1" id="icon-full" x="0" y="0" viewBox="0 0 512 512" xml:space="preserve" xmlns="http://www.w3.org/2000/svg"><style>.hst0{fill:#a0a0a0}</style><path class="hst0" d="M491.2 13.8h-83.3c-3.8 0-6.9 3.1-6.9 6.9 0 3.8 3.1 6.9 6.9 6.9h66.6l-36.8 36.8c-1.3 1.3-2 3.1-2 4.9 0 3.8 3.1 6.9 6.9 6.9 1.8 0 3.6-.7 4.9-2l36.8-36.8V104c0 3.8 3.1 6.9 6.9 6.9 3.8 0 6.9-3.1 6.9-6.9V20.8c.1-3.9-3-7-6.9-7zM394.2 124.7c1.8 0 3.6-.7 4.9-2l14.3-14.3.2-.2c2.7-2.7 2.6-7.1-.2-9.8-2.7-2.7-7.1-2.6-9.8.2l-14.3 14.3c-1.3 1.3-2 3.1-2 4.9 0 3.8 3 6.9 6.9 6.9zM324.3 194.6c1.8 0 3.6-.7 4.9-2l35.6-35.6c2.6-2.7 2.6-6.9 0-9.6-2.7-2.7-7-2.8-9.8-.2l-35.6 35.6c-1.3 1.3-2 3.1-2 4.9 0 3.8 3.1 6.9 6.9 6.9zM37.5 27.7h66.6c3.8 0 6.9-3.1 6.9-6.9 0-3.8-3.1-6.9-6.9-6.9H20.8c-3.8 0-6.9 3.1-6.9 6.9v83.3c0 3.8 3.1 6.9 6.9 6.9 3.8 0 6.9-3.1 6.9-6.9V37.5l155.1 155.1c1.3 1.3 3.1 2 4.9 2 1.8 0 3.6-.7 4.9-2 2.7-2.7 2.7-7.1 0-9.8L37.5 27.7zM491.2 401c-3.8 0-6.9 3.1-6.9 6.9v66.6L329.2 319.4c-2.7-2.6-6.9-2.6-9.6 0-2.7 2.7-2.8 7-.2 9.8l155.1 155.1h-66.6c-3.8 0-6.9 3.1-6.9 6.9 0 3.8 3.1 6.9 6.9 6.9h84c.2 0 .4-.1.6-.1h.1c.7-.1 1.3-.4 1.9-.7l.6-.3c.6-.4 1.1-.8 1.5-1.4l.1-.1c.1-.1.2-.3.3-.4 0-.1.1-.1.1-.2.1-.1.2-.2.2-.4 0-.1.1-.1.1-.2.1-.1.1-.3.2-.4 0-.1 0-.1.1-.2s.1-.3.2-.4v-.2c0-.2.1-.3.1-.5v-.2c0-.2.1-.3.1-.5v-.1V408c.1-3.9-3-7-6.9-7zM182.8 319.4L27.7 474.5v-66.6c0-3.8-3.1-6.9-6.9-6.9-3.8 0-6.9 3.1-6.9 6.9v83.3c0 3.8 3.1 6.9 6.9 6.9h83.3c3.8 0 6.9-3.1 6.9-6.9 0-3.8-3.1-6.9-6.9-6.9H37.5l155.1-155.1c2.6-2.7 2.6-6.9 0-9.6-2.7-2.8-7-2.8-9.8-.2z"/></svg><svg viewBox="0 0 192 192" id="joker" xmlns="http://www.w3.org/2000/svg"><linearGradient id="ia" gradientUnits="userSpaceOnUse" x1="41.88" x2="146.74" y1="149.88" y2="45.019"><stop offset="0" stop-color="#ff85a6"/><stop offset="1" stop-color="#ffdc68"/></linearGradient><g data-name="17-joker"><g fill="#ffedb4"><circle cx="184" cy="120" r="8"/><circle cx="144" cy="48" r="8"/><circle cx="8" cy="120" r="8"/></g><path d="M184.9 107.116C181.836 93.587 169.343 68 144 68c-18.544 0-28.484 8.77-32.835 14.146-9.124-8.223-11.721-17.762-7.083-26.614 5.153-9.836 17.559-15.1 27.653-11.737a4 4 0 0 0 4.843-5.584C128.022 21.1 109.13 8.964 86.211 20.422 62.348 32.354 58.872 59.777 59.075 76.014c-8.883-8.23-22.256-14.895-36.864-7.592C4.207 77.425 4 105.8 4 107a4 4 0 0 0 7.682 1.563c.033-.077 3.373-7.732 9.41-9.943 2.8-1.025 5.781-.712 9.119.958C41.5 105.224 43.993 133.56 44 144v24a4 4 0 0 0 4 4h80a4 4 0 0 0 4-4v-24c.011-8.22 2.509-30.785 13.789-36.425 13.86-6.932 33.038 3.789 33.227 3.895a4 4 0 0 0 5.885-4.357z" fill="#ffe58e"/><path d="M145.789 107.578c13.86-6.932 33.038 3.789 33.227 3.895a4 4 0 0 0 5.885-4.357C181.836 93.587 169.343 68 144 68c-18.544 0-28.484 8.77-32.835 14.146-9.124-8.223-11.721-17.762-7.083-26.614 5.153-9.836 17.559-15.1 27.653-11.737a4 4 0 0 0 4.843-5.584C128.022 21.1 109.13 8.964 86.211 20.422 62.348 32.354 58.872 59.777 59.075 76.014c-8.883-8.23-22.256-14.895-36.864-7.592C4.207 77.425 4 105.8 4 107a4 4 0 0 0 7.682 1.563c.033-.077 3.373-7.732 9.41-9.943 2.8-1.025 5.781-.712 9.119.958C41.5 105.224 43.993 133.56 44 144v8h88v-8c.011-8.217 2.509-30.782 13.789-36.422z" fill="url(#ia)"/></g></svg><svg viewBox="0 0 192 192" id="poker-card" xmlns="http://www.w3.org/2000/svg"><linearGradient id="ja" gradientUnits="userSpaceOnUse" x1="81.172" x2="110.828" y1="70.828" y2="41.172"><stop offset="0" stop-color="#ff85a6"/><stop offset="1" stop-color="#ffdc68"/></linearGradient><g data-name="13-give card"><rect fill="#fff6d9" height="112" rx="8" width="96" x="48"/><path d="M72 96a8 8 0 0 1-8-8V0h-8a8 8 0 0 0-8 8v96a8 8 0 0 0 8 8h80a8 8 0 0 0 8-8v-8z" fill="#fff2c6"/><path d="M115.328 53.781l-16-24a4 4 0 0 0-6.656 0l-16 24a4 4 0 0 0 0 4.438l16 24a4 4 0 0 0 6.656 0l16-24a4 4 0 0 0 0-4.438z" fill="url(#ja)"/><path d="M115.091 136a4.005 4.005 0 0 1 3.745 5.414C116.216 148.493 112 160 80 160l15.155 10.578a4.012 4.012 0 0 0 1.789.422h29.7a3.984 3.984 0 0 0 2.391-.793c2.09-1.566 7.525-8.5 17.963-15.207 9.517-6.118 23.828 2.172 21 5l-30.828 30.828a4 4 0 0 1-2.827 1.172h-53.4a4.012 4.012 0 0 1-1.789-.422l-30.31-15.156a4.012 4.012 0 0 0-1.788-.422H0v-40z" fill="#ffedb4"/><g fill="#ffe58e"><path d="M117.481 136.8C114.358 143.646 107.267 152 80 152v8c13.093 0 21.53-1.927 27.114-4.689a47.02 47.02 0 0 0 6.411-4.586 24.81 24.81 0 0 0 5.311-9.311c-.206-1.872-.004-3.603-1.355-4.614zM164.679 155.321l-27.507 27.507a4 4 0 0 1-2.829 1.172h-53.4a4.012 4.012 0 0 1-1.789-.422l-30.31-15.156a4.012 4.012 0 0 0-1.788-.422H0v8h47.056a4.012 4.012 0 0 1 1.789.422l30.31 15.156a4.012 4.012 0 0 0 1.789.422h53.4a4 4 0 0 0 2.829-1.172L168 160c1.117-1.117-.444-3.083-3.321-4.679z"/></g></g></svg><svg viewBox="0 0 192 192" id="poker-cards" xmlns="http://www.w3.org/2000/svg"><linearGradient id="ka" gradientUnits="userSpaceOnUse" x1="51.172" x2="108.828" y1="115.172" y2="57.515"><stop offset="0" stop-color="#ff85a6"/><stop offset="1" stop-color="#ffdc68"/></linearGradient><g data-name="05-card"><rect fill="#ffdc68" height="160" rx="16" width="128" x="48" y="32"/><rect fill="#fff6d9" height="160" rx="16" width="128" x="16"/><path d="M32 128V0a16.019 16.019 0 0 0-16 16v128a16.019 16.019 0 0 0 16 16h96a16.019 16.019 0 0 0 16-16H48a16.019 16.019 0 0 1-16-16z" fill="#fff2c6"/><path d="M101.26 51.433c-5.6-4.708-11.387-9.575-14.105-15.011a8 8 0 0 0-14.31 0c-2.718 5.436-8.507 10.3-14.1 15.011C49.956 58.819 40 67.19 40 80c0 10.406 4.255 18.767 11.982 23.542 5.665 3.5 12.7 4.633 20.018 3.427L64 128h32l-8-21.03a34.306 34.306 0 0 0 5.562.473 27.306 27.306 0 0 0 14.456-3.9C115.745 98.767 120 90.406 120 80c0-12.81-9.956-21.181-18.74-28.567z" fill="url(#ka)"/></g></svg><svg version="1.1" id="question" x="0" y="0" viewBox="0 0 16 16" xml:space="preserve" xmlns="http://www.w3.org/2000/svg"><style>.lst0{fill:url(#lSVGID_1_)}.lst1{fill:url(#lSVGID_2_)}</style><linearGradient id="lSVGID_1_" gradientUnits="userSpaceOnUse" x1="3.004" y1="7.385" x2="12.707" y2="3.465"><stop offset="0" stop-color="#ab57db"/><stop offset="1" stop-color="#d473ba"/></linearGradient><path class="lst0" d="M12.6 3.2C11.8 1.3 9.8 0 7.5 0 3.7 0 2.2 3.2 2 4.9l3 .4C5 4.9 5.4 3 7.5 3c1.3 0 2 .7 2.3 1.4.1.2.3.9-.2 1.4-.2.2-.5.4-.9.6C7.6 7 6 8 6 11h3c0-1 .3-1.5 1.2-2 .5-.3 1.1-.6 1.6-1.1 1.2-1.2 1.5-3 .8-4.7z"/><linearGradient id="lSVGID_2_" gradientUnits="userSpaceOnUse" x1="5.645" y1="14.749" x2="9.355" y2="13.251"><stop offset="0" stop-color="#ab57db"/><stop offset="1" stop-color="#d473ba"/></linearGradient><circle class="lst1" cx="7.5" cy="14" r="2"/></svg><svg viewBox="0 0 192 192" id="seven" xmlns="http://www.w3.org/2000/svg"><linearGradient id="ma" gradientUnits="userSpaceOnUse" x1="22" x2="167.657" y1="158" y2="12.343"><stop offset="0" stop-color="#ff85a6"/><stop offset="1" stop-color="#ffdc68"/></linearGradient><path d="M173.657 29.657a8 8 0 0 0 0-11.314C164.84 9.526 148.278 1.2 147.578.845a8 8 0 0 0-9.235 1.5C130.713 9.973 124.687 16 104 16c-7.248 0-14.132-2.9-21.421-5.969C71.265 5.266 57.659-.452 40 4.366V0H24v64h16V44.244c9.935-5.9 17.415-2.681 29.084 2.35 10.083 4.347 21.8 9.4 36.8 8.194C83.2 86.233 72.878 116.17 68.19 137.265A180.156 180.156 0 0 0 63.68 176H56v16h88v-16h-10.322c-20.626-63.107 15.004-121.368 39.979-146.343z" fill="url(#ma)" data-name="10-seven"/></svg><svg viewBox="0 0 192 192" id="slot-machine" xmlns="http://www.w3.org/2000/svg"><linearGradient id="na" gradientUnits="userSpaceOnUse" x1="59.139" x2="100.861" y1="57.718" y2="15.995"><stop offset="0" stop-color="#ff85a6"/><stop offset="1" stop-color="#ffdc68"/></linearGradient><g data-name="15-slot"><path d="M176 128h-24v-16h16V48a8 8 0 0 1 8-8h16v16h-8v64a8 8 0 0 1-8 8zM72 40h16v40H72z" fill="#fff2c6"/><path d="M109.625 25.375a4 4 0 0 0-3.069-2.7l-15.5-2.9-7.543-13.837a4 4 0 0 0-7.026 0l-7.544 13.844-15.5 2.9a4 4 0 0 0-2.17 6.681l10.837 11.45-2.035 15.635a4 4 0 0 0 5.684 4.129L80 53.811l14.241 6.766a4 4 0 0 0 5.684-4.129L97.89 40.813l10.836-11.453a4 4 0 0 0 .899-3.985z" fill="url(#na)"/><rect fill="#ffdc68" height="96" rx="8" width="160" y="72"/><path d="M24 152a8 8 0 0 1-8-8V72H8a8 8 0 0 0-8 8v80a8 8 0 0 0 8 8h144a8 8 0 0 0 8-8v-8z" fill="#ffd342"/><path d="M64 96h32v48H64zM112 96h32v48h-32zM16 96h32v48H16z" fill="#fff6d9"/><g fill="#ffdc68"><circle cx="32" cy="120" r="8"/><circle cx="80" cy="120" r="8"/><circle cx="128" cy="120" r="8"/></g></g></svg><svg viewBox="0 0 192 192" id="spade" xmlns="http://www.w3.org/2000/svg"><linearGradient id="oa" gradientUnits="userSpaceOnUse" x1="34.075" x2="157.925" y1="165.925" y2="42.075"><stop offset="0" stop-color="#ff85a6"/><stop offset="1" stop-color="#ffdc68"/></linearGradient><path d="M144 64q-1.222 0-2.458.061A56.074 56.074 0 0 0 144 48a48 48 0 0 0-96 0 56.074 56.074 0 0 0 2.458 16.061Q49.224 64 48 64a48 48 0 0 0 0 96 53.247 53.247 0 0 0 29.757-9.56c-2.028 11.139-5.815 19.231-9.681 23.2-.86.879-2.535 2.36-4.076 2.36a8 8 0 0 0 0 16h64a8 8 0 0 0 0-16c-1.258 0-2.873-.945-4.548-2.663-4-4.1-7.922-12.158-10.063-23.031A55.878 55.878 0 0 0 144 160a48 48 0 0 0 0-96z" fill="url(#oa)" data-name="19-club"/></svg><svg viewBox="-25 0 609 609.744" id="star" xmlns="http://www.w3.org/2000/svg"><defs><linearGradient gradientTransform="translate(-25.281 -598.252) scale(1.00042)" gradientUnits="userSpaceOnUse" id="pa" x1="193.682" x2="416.653" y1="998.351" y2="775.38"><stop offset="0" stop-color="#ff99b5"/><stop offset="1" stop-color="#ffdc68"/></linearGradient></defs><path d="M549.453 81.344C442.371.954 286.676 0 280.003 0c-6.675 0-162.37.953-269.452 81.344C4.195 86.109.383 93.738.383 101.68v305.039c0 5.086 1.59 9.851 4.129 13.98 106.449 159.828 264.37 187.793 271.043 189.063 2.86.316 5.718.316 8.261 0 6.672-1.27 164.594-28.914 271.04-189.063 2.859-4.129 4.132-9.215 4.132-13.98v-305.04c.633-7.94-3.18-15.57-9.535-20.335zm0 0" fill="#ffe58e"/><path d="M280.004 532.55c-29.234-6.991-128.371-38.132-203.36-141.718V128.688c86.11-51.793 202.086-52.426 203.36-52.426 1.27 0 117.246.633 203.36 52.425v262.145c-74.989 103.906-173.81 134.727-203.36 141.719zm0 0" fill="#fff6d9"/><path d="M330.844 507.129C301.609 500.137 202.473 469 127.484 365.41V104.54c-17.793 6.355-34.636 14.616-50.84 24.147v262.145c74.989 103.906 174.126 134.727 203.36 142.035 32.41-8.262 63.23-21.289 91.828-38.765-13.344 5.082-27.008 9.53-40.988 13.027zm0 0" fill="#fff2c6"/><path d="M438.242 228.145c-2.86-9.215-10.805-15.887-20.652-17.16l-79.438-11.438-35.59-72.129c-9.214-18.113-36.222-18.113-45.437 0l-35.59 71.812-79.437 11.438c-13.98 2.223-23.512 15.57-21.29 29.55.958 5.403 3.18 10.169 6.993 13.981l57.515 55.922-13.347 79.438c-3.176 20.02 18.43 35.906 36.86 26.691l71.175-37.492 71.176 37.492c18.11 9.215 40.035-6.352 36.86-26.691l-13.665-79.118 57.512-56.242c6.992-6.672 9.531-16.84 6.355-26.054zm0 0" fill="url(#pa)"/></svg></svg>